<svg xmlns="http://www.w3.org/2000/svg" xmlns:xlink="http://www.w3.org/1999/xlink" width="500" zoomAndPan="magnify" viewBox="0 0 375 74.999997" height="100" preserveAspectRatio="xMidYMid meet" version="1.0"><defs><g/><clipPath id="id1"><path d="M 6.558594 11.957031 L 48.558594 11.957031 L 48.558594 62.957031 L 6.558594 62.957031 Z M 6.558594 11.957031 " clip-rule="nonzero"/></clipPath><clipPath id="id2"><path d="M 6.5625 11.957031 L 48.558594 11.957031 L 48.558594 62.957031 L 6.5625 62.957031 Z M 6.5625 11.957031 " clip-rule="nonzero"/></clipPath><clipPath id="id3"><path d="M 186.332031 11.707031 L 230.582031 11.707031 L 230.582031 59.707031 L 186.332031 59.707031 Z M 186.332031 11.707031 " clip-rule="nonzero"/></clipPath><clipPath id="id4"><path d="M 186.332031 11.710938 L 230.582031 11.710938 L 230.582031 59.707031 L 186.332031 59.707031 Z M 186.332031 11.710938 " clip-rule="nonzero"/></clipPath></defs><g clip-path="url(#id1)"><path fill="#ffbd59" d="M 6.5625 11.957031 L 48.558594 11.957031 L 48.558594 62.957031 L 6.5625 62.957031 L 6.5625 11.957031 " fill-opacity="1" fill-rule="nonzero"/></g><g clip-path="url(#id2)"><path stroke-linecap="butt" transform="matrix(0.748955, 0, 0, 0.748796, 6.56107, 11.955449)" fill="none" stroke-linejoin="miter" d="M 0.00190986 0.00211372 L 56.074822 0.00211372 L 56.074822 68.111491 L 0.00190986 68.111491 L 0.00190986 0.00211372 " stroke="#ffffff" stroke-width="4" stroke-opacity="1" stroke-miterlimit="4"/></g><g fill="#000000" fill-opacity="0.4"><g transform="translate(13.191559, 53.006229)"><g><path d="M 32.871094 -7.125 C 31.925781 -6.402344 30.84375 -6.71875 30.03125 -7.621094 C 25.613281 -12.625 22.863281 -33.054688 15.78125 -33.054688 C 11.949219 -33.054688 7.351562 -29.402344 3.96875 -25.882812 L 4.78125 -24.53125 C 6.945312 -26.019531 10.417969 -27.6875 13.121094 -25.433594 C 13.394531 -25.207031 13.664062 -24.980469 13.933594 -24.710938 C 11.136719 -22.816406 8.566406 -20.921875 7.167969 -17.316406 C 5.140625 -12.21875 8.160156 -2.796875 -0.8125 3.878906 L 0.136719 5.1875 C 4.871094 2.027344 8.160156 -0.359375 10.507812 -3.472656 C 11.316406 -4.644531 11.859375 -6.3125 12.21875 -8.253906 L 18.171875 -8.253906 L 19.929688 -10.234375 C 21.644531 -4.914062 23.402344 0 26.199219 0 L 33.59375 -5.636719 Z M 12.988281 -13.527344 C 13.394531 -16.863281 13.933594 -20.292969 15.152344 -22.953125 C 16.640625 -20.515625 17.765625 -17.046875 18.894531 -13.527344 Z M 12.988281 -13.527344 "/></g></g></g><g fill="#ffffff" fill-opacity="1"><g transform="translate(11.198471, 51.01314)"><g><path d="M 32.871094 -7.125 C 31.925781 -6.402344 30.84375 -6.71875 30.03125 -7.621094 C 25.613281 -12.625 22.863281 -33.054688 15.78125 -33.054688 C 11.949219 -33.054688 7.351562 -29.402344 3.96875 -25.882812 L 4.78125 -24.53125 C 6.945312 -26.019531 10.417969 -27.6875 13.121094 -25.433594 C 13.394531 -25.207031 13.664062 -24.980469 13.933594 -24.710938 C 11.136719 -22.816406 8.566406 -20.921875 7.167969 -17.316406 C 5.140625 -12.21875 8.160156 -2.796875 -0.8125 3.878906 L 0.136719 5.1875 C 4.871094 2.027344 8.160156 -0.359375 10.507812 -3.472656 C 11.316406 -4.644531 11.859375 -6.3125 12.21875 -8.253906 L 18.171875 -8.253906 L 19.929688 -10.234375 C 21.644531 -4.914062 23.402344 0 26.199219 0 L 33.59375 -5.636719 Z M 12.988281 -13.527344 C 13.394531 -16.863281 13.933594 -20.292969 15.152344 -22.953125 C 16.640625 -20.515625 17.765625 -17.046875 18.894531 -13.527344 Z M 12.988281 -13.527344 "/></g></g></g><g fill="#000000" fill-opacity="0.4"><g transform="translate(54.125174, 52.793635)"><g><path d="M 18.304688 -7.335938 C 14.941406 -4.316406 11.042969 -6.800781 8.941406 -6.609375 L 8.941406 -21.132812 C 8.941406 -24.113281 8.941406 -27.015625 5.921875 -28.007812 L -0.917969 -22.238281 L -0.304688 -20.789062 C 1.949219 -22.164062 2.828125 -21.398438 2.941406 -19.066406 L 2.941406 -4.660156 C 2.902344 -2.902344 2.40625 -1.988281 1.71875 -0.957031 L 2.675781 0 C 5.695312 -2.214844 7.566406 0 12.609375 0 L 19.222656 -6.230469 Z M 18.304688 -7.335938 "/></g></g></g><g fill="#000000" fill-opacity="0.4"><g transform="translate(75.940396, 52.793635)"><g><path d="M 16.507812 -16.585938 L 21.207031 -19.984375 C 22.660156 -23.691406 19.449219 -28.007812 15.628906 -28.007812 L 8.941406 -23.003906 C 8.828125 -25.296875 8.332031 -27.207031 5.960938 -28.007812 L -0.917969 -22.238281 L -0.265625 -21.054688 C 1.988281 -22.46875 2.941406 -21.703125 3.019531 -19.375 L 3.019531 -4.816406 C 2.980469 -3.09375 2.371094 -1.988281 1.71875 -0.917969 L 2.789062 0 L 3.019531 -0.230469 C 6.304688 -2.253906 9.054688 0 11.464844 0 C 13.335938 0 15.476562 -1.222656 16.738281 -2.445312 L 23.15625 -8.519531 C 23.769531 -12.800781 20.519531 -15.972656 16.507812 -16.585938 Z M 12.113281 -16.242188 L 8.980469 -13.757812 L 8.980469 -21.015625 L 12.113281 -23.234375 C 16.203125 -23.234375 16.929688 -20.175781 12.113281 -16.242188 Z M 17.539062 -5.503906 C 15.820312 -3.132812 12.800781 -6.726562 8.980469 -6.800781 L 8.980469 -11.539062 C 14.136719 -13.222656 19.527344 -8.445312 17.539062 -5.503906 Z M 17.539062 -5.503906 "/></g></g></g><g fill="#000000" fill-opacity="0.4"><g transform="translate(102.683807, 52.793635)"><g><path d="M 11.425781 -6.34375 C 9.628906 -5.042969 9.019531 -6.265625 9.054688 -8.253906 L 9.019531 -21.132812 C 9.054688 -24.800781 8.292969 -26.328125 6 -28.007812 L -0.917969 -22.238281 L -0.265625 -20.941406 C 1.988281 -22.355469 2.902344 -21.628906 2.980469 -19.257812 L 2.980469 -6.6875 C 2.941406 -3.285156 4.28125 -1.070312 6 0 L 12.34375 -5.160156 Z M 11.425781 -6.34375 "/></g></g></g><g fill="#000000" fill-opacity="0.4"><g transform="translate(117.164043, 52.793635)"><g><path d="M 11.769531 -28.007812 L 2.523438 -20.480469 C -3.898438 -13.984375 3.285156 -1.949219 9.285156 0 L 19.410156 -8.140625 C 26.480469 -14.636719 21.476562 -28.007812 11.769531 -28.007812 Z M 14.671875 -6.648438 C 8.710938 -6.648438 4.050781 -18.1875 7.910156 -22.238281 C 15.207031 -22.238281 17.425781 -11.578125 14.671875 -6.648438 Z M 14.671875 -6.648438 "/></g></g></g><g fill="#000000" fill-opacity="0.4"><g transform="translate(143.410814, 52.793635)"><g><path d="M 28.886719 -5.160156 L 28.007812 -6.457031 C 26.214844 -5.160156 25.640625 -6.609375 25.753906 -8.710938 L 25.71875 -21.132812 C 25.753906 -24.839844 24.875 -26.328125 22.582031 -28.007812 L 15.707031 -22.238281 L 16.355469 -20.902344 C 18.609375 -22.316406 19.488281 -21.589844 19.566406 -19.222656 L 19.566406 -13.257812 C 14.941406 -19.71875 9.476562 -27.972656 6 -28.007812 L -0.917969 -22.164062 L -0.304688 -20.824219 C 1.949219 -22.238281 2.828125 -21.511719 2.902344 -19.144531 L 2.902344 -6.648438 C 2.902344 -3.25 4.242188 -1.03125 5.960938 0 L 12.226562 -5.160156 L 11.347656 -6.417969 C 9.554688 -5.121094 8.902344 -5.921875 8.980469 -8.292969 L 8.980469 -17.234375 C 14.445312 -10.394531 20.445312 0 22.546875 0 L 22.660156 -0.078125 Z M 28.886719 -5.160156 "/></g></g></g><g fill="#ffffff" fill-opacity="1"><g transform="translate(52.436119, 51.104577)"><g><path d="M 18.304688 -7.335938 C 14.941406 -4.316406 11.042969 -6.800781 8.941406 -6.609375 L 8.941406 -21.132812 C 8.941406 -24.113281 8.941406 -27.015625 5.921875 -28.007812 L -0.917969 -22.238281 L -0.304688 -20.789062 C 1.949219 -22.164062 2.828125 -21.398438 2.941406 -19.066406 L 2.941406 -4.660156 C 2.902344 -2.902344 2.40625 -1.988281 1.71875 -0.957031 L 2.675781 0 C 5.695312 -2.214844 7.566406 0 12.609375 0 L 19.222656 -6.230469 Z M 18.304688 -7.335938 "/></g></g></g><g fill="#ffffff" fill-opacity="1"><g transform="translate(74.251341, 51.104577)"><g><path d="M 16.507812 -16.585938 L 21.207031 -19.984375 C 22.660156 -23.691406 19.449219 -28.007812 15.628906 -28.007812 L 8.941406 -23.003906 C 8.828125 -25.296875 8.332031 -27.207031 5.960938 -28.007812 L -0.917969 -22.238281 L -0.265625 -21.054688 C 1.988281 -22.46875 2.941406 -21.703125 3.019531 -19.375 L 3.019531 -4.816406 C 2.980469 -3.09375 2.371094 -1.988281 1.71875 -0.917969 L 2.789062 0 L 3.019531 -0.230469 C 6.304688 -2.253906 9.054688 0 11.464844 0 C 13.335938 0 15.476562 -1.222656 16.738281 -2.445312 L 23.15625 -8.519531 C 23.769531 -12.800781 20.519531 -15.972656 16.507812 -16.585938 Z M 12.113281 -16.242188 L 8.980469 -13.757812 L 8.980469 -21.015625 L 12.113281 -23.234375 C 16.203125 -23.234375 16.929688 -20.175781 12.113281 -16.242188 Z M 17.539062 -5.503906 C 15.820312 -3.132812 12.800781 -6.726562 8.980469 -6.800781 L 8.980469 -11.539062 C 14.136719 -13.222656 19.527344 -8.445312 17.539062 -5.503906 Z M 17.539062 -5.503906 "/></g></g></g><g fill="#ffffff" fill-opacity="1"><g transform="translate(100.994751, 51.104577)"><g><path d="M 11.425781 -6.34375 C 9.628906 -5.042969 9.019531 -6.265625 9.054688 -8.253906 L 9.019531 -21.132812 C 9.054688 -24.800781 8.292969 -26.328125 6 -28.007812 L -0.917969 -22.238281 L -0.265625 -20.941406 C 1.988281 -22.355469 2.902344 -21.628906 2.980469 -19.257812 L 2.980469 -6.6875 C 2.941406 -3.285156 4.28125 -1.070312 6 0 L 12.34375 -5.160156 Z M 11.425781 -6.34375 "/></g></g></g><g fill="#ffffff" fill-opacity="1"><g transform="translate(115.474988, 51.104577)"><g><path d="M 11.769531 -28.007812 L 2.523438 -20.480469 C -3.898438 -13.984375 3.285156 -1.949219 9.285156 0 L 19.410156 -8.140625 C 26.480469 -14.636719 21.476562 -28.007812 11.769531 -28.007812 Z M 14.671875 -6.648438 C 8.710938 -6.648438 4.050781 -18.1875 7.910156 -22.238281 C 15.207031 -22.238281 17.425781 -11.578125 14.671875 -6.648438 Z M 14.671875 -6.648438 "/></g></g></g><g fill="#ffffff" fill-opacity="1"><g transform="translate(141.721759, 51.104577)"><g><path d="M 28.886719 -5.160156 L 28.007812 -6.457031 C 26.214844 -5.160156 25.640625 -6.609375 25.753906 -8.710938 L 25.71875 -21.132812 C 25.753906 -24.839844 24.875 -26.328125 22.582031 -28.007812 L 15.707031 -22.238281 L 16.355469 -20.902344 C 18.609375 -22.316406 19.488281 -21.589844 19.566406 -19.222656 L 19.566406 -13.257812 C 14.941406 -19.71875 9.476562 -27.972656 6 -28.007812 L -0.917969 -22.164062 L -0.304688 -20.824219 C 1.949219 -22.238281 2.828125 -21.511719 2.902344 -19.144531 L 2.902344 -6.648438 C 2.902344 -3.25 4.242188 -1.03125 5.960938 0 L 12.226562 -5.160156 L 11.347656 -6.417969 C 9.554688 -5.121094 8.902344 -5.921875 8.980469 -8.292969 L 8.980469 -17.234375 C 14.445312 -10.394531 20.445312 0 22.546875 0 L 22.660156 -0.078125 Z M 28.886719 -5.160156 "/></g></g></g><g clip-path="url(#id3)"><path fill="#ffbd59" d="M 186.332031 11.710938 L 230.582031 11.710938 L 230.582031 59.707031 L 186.332031 59.707031 L 186.332031 11.710938 " fill-opacity="1" fill-rule="nonzero"/></g><g clip-path="url(#id4)"><path stroke-linecap="butt" transform="matrix(0.752191, 0, 0, 0.750733, 186.331941, 11.70899)" fill="none" stroke-linejoin="miter" d="M 0.000119873 0.00259365 L 58.828243 0.00259365 L 58.828243 63.934899 L 0.000119873 63.934899 L 0.000119873 0.00259365 " stroke="#ffffff" stroke-width="4" stroke-opacity="1" stroke-miterlimit="4"/></g><g fill="#000000" fill-opacity="0.4"><g transform="translate(194.504684, 53.757217)"><g><path d="M 16.738281 -19.941406 C 18.183594 -22.511719 19.714844 -24.90625 21.207031 -26.980469 C 21.835938 -25.402344 24.816406 -24.003906 26.933594 -24.003906 L 32.84375 -28.832031 L 31.988281 -30.136719 C 29.101562 -27.972656 28.332031 -33.070312 24.453125 -33.070312 C 20.84375 -33.070312 15.65625 -24.136719 10.46875 -12.902344 C 10.378906 -16.601562 10.46875 -21.25 10.601562 -24.949219 C 10.691406 -29.28125 9.746094 -31.085938 7.039062 -33.070312 L -1.082031 -26.257812 L -0.316406 -24.816406 C 2.347656 -26.484375 3.382812 -25.625 3.472656 -22.828125 L 3.472656 -7.894531 C 3.472656 -3.878906 5.007812 -1.261719 7.039062 0 L 14.527344 -6.089844 L 13.488281 -7.488281 C 11.910156 -6.363281 11.28125 -6.675781 10.917969 -7.941406 C 11.503906 -9.429688 12.136719 -10.875 12.769531 -12.273438 C 15.070312 -7.851562 19.761719 -0.046875 22.109375 0 L 31.039062 -6.40625 L 29.957031 -7.984375 C 25.625 -4.78125 20.304688 -14.796875 16.738281 -19.941406 Z M 16.738281 -19.941406 "/></g></g></g><g fill="#ffffff" fill-opacity="1"><g transform="translate(192.510606, 51.76314)"><g><path d="M 16.738281 -19.941406 C 18.183594 -22.511719 19.714844 -24.90625 21.207031 -26.980469 C 21.835938 -25.402344 24.816406 -24.003906 26.933594 -24.003906 L 32.84375 -28.832031 L 31.988281 -30.136719 C 29.101562 -27.972656 28.332031 -33.070312 24.453125 -33.070312 C 20.84375 -33.070312 15.65625 -24.136719 10.46875 -12.902344 C 10.378906 -16.601562 10.46875 -21.25 10.601562 -24.949219 C 10.691406 -29.28125 9.746094 -31.085938 7.039062 -33.070312 L -1.082031 -26.257812 L -0.316406 -24.816406 C 2.347656 -26.484375 3.382812 -25.625 3.472656 -22.828125 L 3.472656 -7.894531 C 3.472656 -3.878906 5.007812 -1.261719 7.039062 0 L 14.527344 -6.089844 L 13.488281 -7.488281 C 11.910156 -6.363281 11.28125 -6.675781 10.917969 -7.941406 C 11.503906 -9.429688 12.136719 -10.875 12.769531 -12.273438 C 15.070312 -7.851562 19.761719 -0.046875 22.109375 0 L 31.039062 -6.40625 L 29.957031 -7.984375 C 25.625 -4.78125 20.304688 -14.796875 16.738281 -19.941406 Z M 16.738281 -19.941406 "/></g></g></g><g fill="#424242" fill-opacity="0.4"><g transform="translate(237.023879, 52.793635)"><g><path d="M 11.425781 -6.34375 C 9.628906 -5.042969 9.019531 -6.265625 9.054688 -8.253906 L 9.019531 -21.132812 C 9.054688 -24.800781 8.292969 -26.328125 6 -28.007812 L -0.917969 -22.238281 L -0.265625 -20.941406 C 1.988281 -22.355469 2.902344 -21.628906 2.980469 -19.257812 L 2.980469 -6.6875 C 2.941406 -3.285156 4.28125 -1.070312 6 0 L 12.34375 -5.160156 Z M 11.425781 -6.34375 "/></g></g></g><g fill="#424242" fill-opacity="0.4"><g transform="translate(251.504114, 52.793635)"><g><path d="M 18.304688 -7.335938 C 14.941406 -4.316406 11.042969 -6.800781 8.941406 -6.609375 L 8.941406 -21.132812 C 8.941406 -24.113281 8.941406 -27.015625 5.921875 -28.007812 L -0.917969 -22.238281 L -0.304688 -20.789062 C 1.949219 -22.164062 2.828125 -21.398438 2.941406 -19.066406 L 2.941406 -4.660156 C 2.902344 -2.902344 2.40625 -1.988281 1.71875 -0.957031 L 2.675781 0 C 5.695312 -2.214844 7.566406 0 12.609375 0 L 19.222656 -6.230469 Z M 18.304688 -7.335938 "/></g></g></g><g fill="#424242" fill-opacity="0.4"><g transform="translate(273.319337, 52.793635)"><g><path d="M 18.304688 -7.335938 C 14.941406 -4.316406 11.042969 -6.800781 8.941406 -6.609375 L 8.941406 -21.132812 C 8.941406 -24.113281 8.941406 -27.015625 5.921875 -28.007812 L -0.917969 -22.238281 L -0.304688 -20.789062 C 1.949219 -22.164062 2.828125 -21.398438 2.941406 -19.066406 L 2.941406 -4.660156 C 2.902344 -2.902344 2.40625 -1.988281 1.71875 -0.957031 L 2.675781 0 C 5.695312 -2.214844 7.566406 0 12.609375 0 L 19.222656 -6.230469 Z M 18.304688 -7.335938 "/></g></g></g><g fill="#424242" fill-opacity="0.4"><g transform="translate(295.134558, 52.793635)"><g><path d="M 16.507812 -16.585938 L 21.207031 -19.984375 C 22.660156 -23.691406 19.449219 -28.007812 15.628906 -28.007812 L 8.941406 -23.003906 C 8.828125 -25.296875 8.332031 -27.207031 5.960938 -28.007812 L -0.917969 -22.238281 L -0.265625 -21.054688 C 1.988281 -22.46875 2.941406 -21.703125 3.019531 -19.375 L 3.019531 -4.816406 C 2.980469 -3.09375 2.371094 -1.988281 1.71875 -0.917969 L 2.789062 0 L 3.019531 -0.230469 C 6.304688 -2.253906 9.054688 0 11.464844 0 C 13.335938 0 15.476562 -1.222656 16.738281 -2.445312 L 23.15625 -8.519531 C 23.769531 -12.800781 20.519531 -15.972656 16.507812 -16.585938 Z M 12.113281 -16.242188 L 8.980469 -13.757812 L 8.980469 -21.015625 L 12.113281 -23.234375 C 16.203125 -23.234375 16.929688 -20.175781 12.113281 -16.242188 Z M 17.539062 -5.503906 C 15.820312 -3.132812 12.800781 -6.726562 8.980469 -6.800781 L 8.980469 -11.539062 C 14.136719 -13.222656 19.527344 -8.445312 17.539062 -5.503906 Z M 17.539062 -5.503906 "/></g></g></g><g fill="#424242" fill-opacity="0.4"><g transform="translate(321.877968, 52.793635)"><g><path d="M 11.769531 -28.007812 L 2.523438 -20.480469 C -3.898438 -13.984375 3.285156 -1.949219 9.285156 0 L 19.410156 -8.140625 C 26.480469 -14.636719 21.476562 -28.007812 11.769531 -28.007812 Z M 14.671875 -6.648438 C 8.710938 -6.648438 4.050781 -18.1875 7.910156 -22.238281 C 15.207031 -22.238281 17.425781 -11.578125 14.671875 -6.648438 Z M 14.671875 -6.648438 "/></g></g></g><g fill="#424242" fill-opacity="0.4"><g transform="translate(348.124739, 52.793635)"><g><path d="M 15.894531 -22.203125 L 21.820312 -27.132812 L 20.941406 -28.007812 C 17.195312 -25.601562 9.019531 -28.964844 4.433594 -27.933594 L -2.445312 -23.308594 L -1.679688 -22.125 C 0.078125 -23.195312 2.484375 -23.269531 5.351562 -22.925781 L 5.351562 -6.648438 C 5.351562 -3.285156 6.609375 -1.070312 8.367188 0 L 14.75 -5.160156 L 13.832031 -6.34375 C 12 -5.082031 11.386719 -5.921875 11.425781 -8.292969 L 11.386719 -22.164062 C 12.992188 -22.046875 14.519531 -22.011719 15.894531 -22.203125 Z M 15.894531 -22.203125 "/></g></g></g><g fill="#ffffff" fill-opacity="1"><g transform="translate(235.334826, 51.104577)"><g><path d="M 11.425781 -6.34375 C 9.628906 -5.042969 9.019531 -6.265625 9.054688 -8.253906 L 9.019531 -21.132812 C 9.054688 -24.800781 8.292969 -26.328125 6 -28.007812 L -0.917969 -22.238281 L -0.265625 -20.941406 C 1.988281 -22.355469 2.902344 -21.628906 2.980469 -19.257812 L 2.980469 -6.6875 C 2.941406 -3.285156 4.28125 -1.070312 6 0 L 12.34375 -5.160156 Z M 11.425781 -6.34375 "/></g></g></g><g fill="#ffffff" fill-opacity="1"><g transform="translate(249.815061, 51.104577)"><g><path d="M 18.304688 -7.335938 C 14.941406 -4.316406 11.042969 -6.800781 8.941406 -6.609375 L 8.941406 -21.132812 C 8.941406 -24.113281 8.941406 -27.015625 5.921875 -28.007812 L -0.917969 -22.238281 L -0.304688 -20.789062 C 1.949219 -22.164062 2.828125 -21.398438 2.941406 -19.066406 L 2.941406 -4.660156 C 2.902344 -2.902344 2.40625 -1.988281 1.71875 -0.957031 L 2.675781 0 C 5.695312 -2.214844 7.566406 0 12.609375 0 L 19.222656 -6.230469 Z M 18.304688 -7.335938 "/></g></g></g><g fill="#ffffff" fill-opacity="1"><g transform="translate(271.630284, 51.104577)"><g><path d="M 18.304688 -7.335938 C 14.941406 -4.316406 11.042969 -6.800781 8.941406 -6.609375 L 8.941406 -21.132812 C 8.941406 -24.113281 8.941406 -27.015625 5.921875 -28.007812 L -0.917969 -22.238281 L -0.304688 -20.789062 C 1.949219 -22.164062 2.828125 -21.398438 2.941406 -19.066406 L 2.941406 -4.660156 C 2.902344 -2.902344 2.40625 -1.988281 1.71875 -0.957031 L 2.675781 0 C 5.695312 -2.214844 7.566406 0 12.609375 0 L 19.222656 -6.230469 Z M 18.304688 -7.335938 "/></g></g></g><g fill="#ffffff" fill-opacity="1"><g transform="translate(293.445505, 51.104577)"><g><path d="M 16.507812 -16.585938 L 21.207031 -19.984375 C 22.660156 -23.691406 19.449219 -28.007812 15.628906 -28.007812 L 8.941406 -23.003906 C 8.828125 -25.296875 8.332031 -27.207031 5.960938 -28.007812 L -0.917969 -22.238281 L -0.265625 -21.054688 C 1.988281 -22.46875 2.941406 -21.703125 3.019531 -19.375 L 3.019531 -4.816406 C 2.980469 -3.09375 2.371094 -1.988281 1.71875 -0.917969 L 2.789062 0 L 3.019531 -0.230469 C 6.304688 -2.253906 9.054688 0 11.464844 0 C 13.335938 0 15.476562 -1.222656 16.738281 -2.445312 L 23.15625 -8.519531 C 23.769531 -12.800781 20.519531 -15.972656 16.507812 -16.585938 Z M 12.113281 -16.242188 L 8.980469 -13.757812 L 8.980469 -21.015625 L 12.113281 -23.234375 C 16.203125 -23.234375 16.929688 -20.175781 12.113281 -16.242188 Z M 17.539062 -5.503906 C 15.820312 -3.132812 12.800781 -6.726562 8.980469 -6.800781 L 8.980469 -11.539062 C 14.136719 -13.222656 19.527344 -8.445312 17.539062 -5.503906 Z M 17.539062 -5.503906 "/></g></g></g><g fill="#ffffff" fill-opacity="1"><g transform="translate(320.188915, 51.104577)"><g><path d="M 11.769531 -28.007812 L 2.523438 -20.480469 C -3.898438 -13.984375 3.285156 -1.949219 9.285156 0 L 19.410156 -8.140625 C 26.480469 -14.636719 21.476562 -28.007812 11.769531 -28.007812 Z M 14.671875 -6.648438 C 8.710938 -6.648438 4.050781 -18.1875 7.910156 -22.238281 C 15.207031 -22.238281 17.425781 -11.578125 14.671875 -6.648438 Z M 14.671875 -6.648438 "/></g></g></g><g fill="#ffffff" fill-opacity="1"><g transform="translate(346.435686, 51.104577)"><g><path d="M 15.894531 -22.203125 L 21.820312 -27.132812 L 20.941406 -28.007812 C 17.195312 -25.601562 9.019531 -28.964844 4.433594 -27.933594 L -2.445312 -23.308594 L -1.679688 -22.125 C 0.078125 -23.195312 2.484375 -23.269531 5.351562 -22.925781 L 5.351562 -6.648438 C 5.351562 -3.285156 6.609375 -1.070312 8.367188 0 L 14.75 -5.160156 L 13.832031 -6.34375 C 12 -5.082031 11.386719 -5.921875 11.425781 -8.292969 L 11.386719 -22.164062 C 12.992188 -22.046875 14.519531 -22.011719 15.894531 -22.203125 Z M 15.894531 -22.203125 "/></g></g></g></svg>